<svg width="640" height="640" viewBox="0 0 640 640" xmlns="http://www.w3.org/2000/svg">
  <circle cx="320" cy="320" r="320" fill="#0f1f3a"/>
  <line x1="120" y1="200" x2="120" y2="480" stroke="#1a3050" stroke-width="1"/>
  <line x1="220" y1="200" x2="220" y2="480" stroke="#1a3050" stroke-width="1"/>
  <line x1="320" y1="200" x2="320" y2="480" stroke="#1a3050" stroke-width="1"/>
  <line x1="420" y1="200" x2="420" y2="480" stroke="#1a3050" stroke-width="1"/>
  <line x1="520" y1="200" x2="520" y2="480" stroke="#1a3050" stroke-width="1"/>
  <line x1="120" y1="280" x2="520" y2="280" stroke="#1a3050" stroke-width="1"/>
  <line x1="120" y1="360" x2="520" y2="360" stroke="#1a3050" stroke-width="1"/>
  <line x1="120" y1="440" x2="520" y2="440" stroke="#1a3050" stroke-width="1"/>
  <path d="M120,420 L180,410 L220,390 L260,400 L300,350 L340,320 L380,280 L420,260 L460,230 L520,200" fill="none" stroke="#4fc3f7" stroke-width="6" stroke-linecap="round" stroke-linejoin="round"/>
  <circle cx="520" cy="200" r="10" fill="#4fc3f7"/>
  <circle cx="520" cy="200" r="16" fill="none" stroke="#4fc3f7" stroke-width="2" opacity="0.4"/>
  <polygon points="510,170 520,148 530,170" fill="#4caf50" opacity="0.9"/>
  <text x="320" y="540" text-anchor="middle" fill="#ffffff" font-size="72" font-weight="800" font-family="Arial,sans-serif">BTDD</text>
  <text x="320" y="580" text-anchor="middle" fill="#4fc3f7" font-size="22" font-weight="500" font-family="Arial,sans-serif">ALGO TRADING</text>
</svg>
