<svg width="640" height="640" viewBox="0 0 640 640" xmlns="http://www.w3.org/2000/svg">
  <circle cx="320" cy="320" r="320" fill="#0f2a18"/>
  <rect x="160" y="180" rx="24" ry="24" width="220" height="70" fill="#1b5e20" opacity="0.6"/>
  <rect x="170" y="200" rx="6" ry="6" width="120" height="10" fill="#4caf50" opacity="0.7"/>
  <rect x="170" y="220" rx="6" ry="6" width="80" height="10" fill="#4caf50" opacity="0.5"/>
  <rect x="260" y="280" rx="24" ry="24" width="240" height="70" fill="#2e7d32" opacity="0.6"/>
  <rect x="270" y="300" rx="6" ry="6" width="140" height="10" fill="#66bb6a" opacity="0.7"/>
  <rect x="270" y="320" rx="6" ry="6" width="100" height="10" fill="#66bb6a" opacity="0.5"/>
  <rect x="140" y="380" rx="24" ry="24" width="200" height="70" fill="#1b5e20" opacity="0.6"/>
  <rect x="150" y="400" rx="6" ry="6" width="110" height="10" fill="#4caf50" opacity="0.7"/>
  <rect x="150" y="420" rx="6" ry="6" width="70" height="10" fill="#4caf50" opacity="0.5"/>
  <text x="320" y="540" text-anchor="middle" fill="#ffffff" font-size="72" font-weight="800" font-family="Arial,sans-serif">BTDD</text>
  <text x="320" y="580" text-anchor="middle" fill="#66bb6a" font-size="22" font-weight="500" font-family="Arial,sans-serif">COMMUNITY</text>
</svg>
