<svg xmlns="http://www.w3.org/2000/svg" viewBox="0 0 64 64" role="img" aria-label="BattleToads inspired neon toad icon">
  <defs>
    <linearGradient id="bg" x1="0" x2="1" y1="0" y2="1">
      <stop offset="0%" stop-color="#0f1932"/>
      <stop offset="100%" stop-color="#192646"/>
    </linearGradient>
    <linearGradient id="skin" x1="0" x2="1" y1="0" y2="1">
      <stop offset="0%" stop-color="#a2f34d"/>
      <stop offset="100%" stop-color="#33bc74"/>
    </linearGradient>
    <linearGradient id="chin" x1="0" x2="1" y1="0" y2="1">
      <stop offset="0%" stop-color="#f8ffb3"/>
      <stop offset="100%" stop-color="#c9f57c"/>
    </linearGradient>
  </defs>
  <rect x="4" y="4" width="56" height="56" rx="14" fill="url(#bg)"/>
  <path d="M15 35c0-11.6 8.2-19.8 17-19.8S49 23.4 49 35c0 8.8-7.5 15.9-17 15.9S15 43.8 15 35z" fill="url(#skin)" stroke="#d9ff72" stroke-width="1.8"/>
  <ellipse cx="24" cy="26" rx="6.6" ry="5.8" fill="#dbff92"/>
  <ellipse cx="40" cy="26" rx="6.6" ry="5.8" fill="#dbff92"/>
  <circle cx="24" cy="26.2" r="2.4" fill="#102436"/>
  <circle cx="40" cy="26.2" r="2.4" fill="#102436"/>
  <path d="M22.5 40.5c2.7 2.7 6 4 9.5 4s6.8-1.3 9.5-4" fill="none" stroke="#153d2f" stroke-width="2.4" stroke-linecap="round"/>
  <path d="M24 49c2.2 1.7 4.8 2.6 8 2.6s5.8-.9 8-2.6" fill="none" stroke="url(#chin)" stroke-width="2" stroke-linecap="round"/>
  <path d="M9 14l6.8-2.4M55 14l-6.8-2.4" stroke="#ff4f9b" stroke-width="2" stroke-linecap="round"/>
</svg>
